<?xml version="1.0" encoding="UTF-8" standalone="no"?>
<!DOCTYPE svg PUBLIC "-//W3C//DTD SVG 1.1//EN" "http://www.w3.org/Graphics/SVG/1.1/DTD/svg11.dtd">
<svg width="100%" height="100%" viewBox="0 0 114 29" version="1.1" xmlns="http://www.w3.org/2000/svg" xmlns:xlink="http://www.w3.org/1999/xlink" xml:space="preserve" xmlns:serif="http://www.serif.com/" style="fill-rule:evenodd;clip-rule:evenodd;stroke-linejoin:round;stroke-miterlimit:2;">
    <g>
        <g>
            <path d="M98.011,17.982L91.723,27.236L86.251,27.236L95.323,14.276L86.299,1.364L91.675,1.364L98.026,10.596L104.299,1.364L109.723,1.364L100.699,14.276L109.675,27.236L104.299,27.236L98.011,17.982Z" style="fill:white;"/>
            <g transform="matrix(0.139629,0,0,0.139629,-5.20605,-6.46564)">
                <path d="M82.8,79.626L60.019,79.626L60.019,218.301L125.592,218.301L125.592,197.897L82.8,197.897L82.8,79.626Z" style="fill:white;fill-rule:nonzero;"/>
            </g>
            <g transform="matrix(0.139629,0,0,0.139629,-5.20605,-6.46564)">
                <path d="M206.02,138.464C203.114,133.842 198.987,130.211 193.638,127.568C188.29,124.927 182.907,123.605 177.493,123.605C170.49,123.605 164.086,124.893 158.276,127.468C152.463,130.043 147.479,133.579 143.319,138.068C139.159,142.559 135.922,147.743 133.612,153.618C131.299,159.497 130.145,165.673 130.145,172.142C130.145,178.748 131.299,184.953 133.612,190.763C135.921,196.577 139.158,201.727 143.319,206.216C147.479,210.707 152.464,214.239 158.276,216.814C164.086,219.389 170.49,220.677 177.493,220.677C182.907,220.677 188.29,219.356 193.638,216.715C198.987,214.075 203.114,210.443 206.02,205.819L206.02,218.299L227.614,218.299L227.614,125.981L206.02,125.981L206.02,138.464ZM204.039,183.434C202.718,187.001 200.869,190.105 198.493,192.746C196.115,195.389 193.242,197.501 189.875,199.086C186.507,200.671 182.773,201.463 178.681,201.463C174.586,201.463 170.888,200.671 167.587,199.086C164.285,197.501 161.446,195.389 159.069,192.746C156.691,190.105 154.874,187.001 153.621,183.434C152.363,179.868 151.739,176.104 151.739,172.143C151.739,168.18 152.363,164.416 153.621,160.85C154.874,157.284 156.691,154.182 159.069,151.539C161.446,148.899 164.284,146.784 167.587,145.199C170.888,143.614 174.586,142.822 178.681,142.822C182.774,142.822 186.507,143.614 189.875,145.199C193.242,146.784 196.115,148.898 198.493,151.539C200.87,154.182 202.718,157.284 204.039,160.85C205.358,164.416 206.02,168.18 206.02,172.143C206.02,176.104 205.358,179.868 204.039,183.434Z" style="fill:white;fill-rule:nonzero;"/>
            </g>
            <g transform="matrix(0.139629,0,0,0.139629,-5.20605,-6.46564)">
                <path d="M381.542,138.464C378.636,133.842 374.509,130.211 369.16,127.568C363.812,124.927 358.429,123.605 353.015,123.605C346.012,123.605 339.608,124.893 333.798,127.468C327.985,130.043 323.001,133.579 318.841,138.068C314.681,142.559 311.444,147.743 309.134,153.618C306.821,159.497 305.667,165.673 305.667,172.142C305.667,178.748 306.821,184.953 309.134,190.763C311.443,196.577 314.68,201.727 318.841,206.216C323.001,210.707 327.986,214.239 333.798,216.814C339.608,219.389 346.012,220.677 353.015,220.677C358.429,220.677 363.812,219.356 369.16,216.715C374.509,214.075 378.636,210.443 381.542,205.819L381.542,218.299L403.136,218.299L403.136,125.981L381.542,125.981L381.542,138.464ZM379.562,183.434C378.241,187.001 376.392,190.105 374.016,192.746C371.638,195.389 368.765,197.501 365.398,199.086C362.03,200.671 358.296,201.463 354.204,201.463C350.109,201.463 346.411,200.671 343.11,199.086C339.808,197.501 336.969,195.389 334.592,192.746C332.214,190.105 330.397,187.001 329.144,183.434C327.886,179.868 327.262,176.104 327.262,172.143C327.262,168.18 327.886,164.416 329.144,160.85C330.397,157.284 332.214,154.182 334.592,151.539C336.969,148.899 339.807,146.784 343.11,145.199C346.411,143.614 350.109,142.822 354.204,142.822C358.297,142.822 362.03,143.614 365.398,145.199C368.765,146.784 371.638,148.898 374.016,151.539C376.393,154.182 378.241,157.284 379.562,160.85C380.881,164.416 381.543,168.18 381.543,172.143C381.542,176.104 380.88,179.868 379.562,183.434Z" style="fill:white;fill-rule:nonzero;"/>
            </g>
            <g transform="matrix(0.139629,0,0,0.139629,-5.20605,-6.46564)">
                <rect x="618.426" y="79.626" width="21.593" height="138.675" style="fill:white;"/>
            </g>
            <g transform="matrix(0.139629,0,0,0.139629,-5.20605,-6.46564)">
                <path d="M244.652,218.301L266.244,218.301L266.244,147.23L303.291,147.23L303.291,125.984L244.652,125.984L244.652,218.301Z" style="fill:white;fill-rule:nonzero;"/>
            </g>
            <g transform="matrix(0.139629,0,0,0.139629,-5.20605,-6.46564)">
                <path d="M489.709,125.984L462.569,196.678L435.428,125.984L413.558,125.984L449,218.301L476.138,218.301L511.579,125.984L489.709,125.984Z" style="fill:white;fill-rule:nonzero;"/>
            </g>
            <g transform="matrix(0.139629,0,0,0.139629,-5.20605,-6.46564)">
                <path d="M558.675,123.61C532.233,123.61 511.303,145.34 511.303,172.144C511.303,201.774 531.559,220.678 561.442,220.678C578.166,220.678 588.844,214.283 601.89,200.357L587.302,189.07C587.294,189.081 576.291,203.527 559.863,203.527C540.768,203.527 532.728,188.132 532.728,180.167L604.365,180.167C608.128,149.668 588.077,123.61 558.675,123.61ZM532.785,164.121C532.951,162.344 535.438,140.761 558.504,140.761C581.57,140.761 584.373,162.341 584.534,164.121L532.785,164.121Z" style="fill:white;fill-rule:nonzero;"/>
            </g>
        </g>
    </g>
</svg>
